<svg fill="#FFFFFF" xmlns="http://www.w3.org/2000/svg" xmlns:xlink="http://www.w3.org/1999/xlink" version="1.1" x="0px" y="0px" viewBox="0 0 20 20" xml:space="preserve"><path fill="#FFFFFF" d="M14.5,8c0,0-0.3,1.5-2,2c0,0,2.6-4.1-3.3-10c0,0-0.8,4.6-3.4,7.9c0,0-5.5,7,0.4,11c1,0.7,2.3,1,3.5,1  c0,0,0,0,0,0c-0.7,0-1.3-0.2-1.9-0.5c-3.3-2.2-0.2-6.1-0.2-6.1C9.2,11.5,9.5,9,9.5,9c2.8,2.8,1.9,5.5,1.9,5.5c1-0.3,1.1-1.5,1.1-1.5  c1.7,2.4,0.9,4.8-0.1,5.9c-0.6,0.6-1.4,1-2.3,1.1c1.6-0.1,3.1-0.8,4.3-1.9C16.2,16,18,12.5,14.5,8z"></path></svg>